<?xml version="1.0" standalone="no"?><!DOCTYPE svg PUBLIC "-//W3C//DTD SVG 1.1//EN" "http://www.w3.org/Graphics/SVG/1.1/DTD/svg11.dtd"><svg t="1606631823062" class="icon" viewBox="0 0 1024 1024" version="1.1" xmlns="http://www.w3.org/2000/svg" p-id="3528" xmlns:xlink="http://www.w3.org/1999/xlink" width="20" height="20"><defs><style type="text/css"></style></defs><path d="M512 959.634a447.634 447.634 0 1 1 0-895.268 447.634 447.634 0 0 1 0 895.268zM719.799 302.52a53.687 53.687 0 0 0-75.85 0L510.977 435.493 379.685 304.2a53.394 53.394 0 0 0-75.557 75.557l131.291 131.291-132.9 132.9a53.614 53.614 0 1 0 75.849 75.85l132.9-132.828 132.974 132.901a53.394 53.394 0 1 0 75.484-75.483l-132.9-133.047 132.973-132.974a53.614 53.614 0 0 0 0-75.85z" fill="#ED4040" p-id="3529"></path></svg>
