<?xml version="1.0" standalone="no"?><!DOCTYPE svg PUBLIC "-//W3C//DTD SVG 1.1//EN" "http://www.w3.org/Graphics/SVG/1.1/DTD/svg11.dtd"><svg t="1606632693808" class="icon" viewBox="0 0 1024 1024" version="1.1" xmlns="http://www.w3.org/2000/svg" p-id="3060" xmlns:xlink="http://www.w3.org/1999/xlink" width="20" height="20"><defs><style type="text/css"></style></defs><path d="M521.929697 45.645576c-257.024 0-465.454545 208.430545-465.454545 465.454545s208.430545 465.454545 465.454545 465.454546c257.086061 0 465.454545-208.430545 465.454545-465.454546s-208.368485-465.454545-465.454545-465.454545z m265.991758 387.971879l-267.574303 268.132848a31.030303 31.030303 0 0 1-21.938425 9.122909h-0.03103a30.906182 30.906182 0 0 1-21.938424-9.091879l-186.802425-186.802424a30.999273 30.999273 0 1 1 43.876849-43.876848l164.83297 164.832969 245.635878-246.132363a30.999273 30.999273 0 1 1 43.93891 43.814788z" fill="#55D354" p-id="3061"></path></svg>
