<?xml version="1.0" standalone="no"?><!DOCTYPE svg PUBLIC "-//W3C//DTD SVG 1.1//EN" "http://www.w3.org/Graphics/SVG/1.1/DTD/svg11.dtd"><svg t="1605803835822" class="icon" viewBox="0 0 1024 1024" version="1.1" xmlns="http://www.w3.org/2000/svg" p-id="5927" xmlns:xlink="http://www.w3.org/1999/xlink" width="200" height="200"><defs><style type="text/css"></style></defs><path d="M412.444444 995.555556c-84.608-22.115556-235.605333-65.166222-262.727111-268.686223-17.991111-135.822222-3.626667-229.888 43.335111-282.396444l35.185778 67.882667c19.911111-88.689778 58.737778-155.648 116.48-200.860445 86.656-67.825778 92.074667-230.641778 54.186667-263.253333-37.916444-32.540444 289.777778 75.975111 308.764444 361.031111 25.258667-65.166222 59.534222-97.706667 102.926223-97.706667-18.119111 48.782222-9.984 104.007111 24.334222 165.518222 51.470222 92.288 127.274667 390.855111-189.582222 507.591112 67.683556-97.706667 33.905778-252.430222-133.361778-379.975112-48.071111 130.275556-83.328 124.828444-113.095111 187.278223C369.123556 854.357333 352.853333 935.822222 412.458667 995.555556z" fill="orange" stroke-width="65" stroke="red" p-id="5928"></path></svg>
