<?xml version="1.0" standalone="no"?><!DOCTYPE svg PUBLIC "-//W3C//DTD SVG 1.1//EN" "http://www.w3.org/Graphics/SVG/1.1/DTD/svg11.dtd"><svg t="1605803989567" class="icon" viewBox="0 0 1024 1024" version="1.1" xmlns="http://www.w3.org/2000/svg" p-id="9885" xmlns:xlink="http://www.w3.org/1999/xlink" width="200" height="200"><defs><style type="text/css"></style></defs><path d="M1024 469.835294l0 521.035294L28.310588 0 565.007059 0z" fill="#FC5A5D" p-id="9886"></path><path d="M642.108235 281.298824L607.171765 246.964706l-99.990589 101.797647-26.503529-25.90117701 99.990588-102.39999999-34.93647-34.334117 21.082353-21.684706 96.978823 95.171765-21.684706 21.684706zM603.557647 325.270588c19.275294-19.275294 40.357647-29.515294 63.247059-30.72 23.491765-1.204706 43.971765 7.830588 62.644706 25.901177 17.468235 17.468235 25.901176 37.345882 25.298823 59.632941s-10.24 42.767059-28.310588 60.837647c-18.672941 19.275294-39.755294 29.515294-62.644706 30.117647C640.903529 472.244706 620.423529 463.811765 602.35294101 445.741176c-17.468235-17.468235-26.503529-37.345882-25.90117601-59.632941 0-21.684706 9.035294-42.164706 27.105882-60.837647z m28.912941 25.901177c-12.047059 12.047059-18.672941 24.696471-20.48 37.948235-1.807059 13.251765 2.409412 24.696471 12.649412 34.936471 10.24 10.24 21.684706 14.45647101 34.936471 12.649411 12.649412-1.807059 25.298824-8.432941 37.345882-21.082353 12.649412-12.649412 19.877647-25.901176 21.684706-38.55058799s-2.409412-24.696471-12.649412-34.33411701c-10.24-10.24-22.287059-14.456471-35.538823-12.649412-13.251765 1.807059-25.901176 9.035294-37.948236 21.082353zM754.145882 507.181176l-42.164706 42.767059-26.503529-25.901176L807.152941 401.167059l42.164706 41.562353c30.72 30.117647 33.129412 58.428235 7.830588 84.329412-12.649412 12.649412-27.105882 18.070588-43.971764 16.865882s-31.924706-9.035294-45.778824-23.491765l-13.251765-13.251765z m59.030589-60.235294l-39.152942 39.755294 11.444706 11.444706c15.661176 15.058824 29.515294 16.263529 42.767059 2.409412 12.649412-13.251765 11.444706-27.105882-3.614118-42.164706L813.176471 446.945882z" fill="#FFFFFF" p-id="9887"></path></svg>